<?xml version="1.0" standalone="no"?><!DOCTYPE svg PUBLIC "-//W3C//DTD SVG 1.1//EN" "http://www.w3.org/Graphics/SVG/1.1/DTD/svg11.dtd"><svg t="1737436822788" class="icon" viewBox="0 0 1024 1024" version="1.1" xmlns="http://www.w3.org/2000/svg" p-id="1359" xmlns:xlink="http://www.w3.org/1999/xlink" width="192" height="192"><path d="M829.866667 938.666667H603.733333L576 853.333333h-128l-27.733333 85.333334H194.133333c-29.866667 0-46.933333-2.133333-66.133333-10.666667-12.8-6.4-25.6-19.2-32-32-8.533333-19.2-10.666667-36.266667-10.666667-66.133333V441.6c0-17.066667 0-27.733333 4.266667-38.4 2.133333-8.533333 6.4-17.066667 12.8-25.6 6.4-10.666667 14.933333-17.066667 32-29.866667L460.8 93.866667c14.933333-10.666667 23.466667-17.066667 38.4-21.333334 10.666667-2.133333 19.2-2.133333 29.866667 0 12.8 4.266667 23.466667 10.666667 38.4 21.333334l326.4 253.866666c17.066667 12.8 23.466667 19.2 32 29.866667 6.4 8.533333 10.666667 17.066667 12.8 25.6 2.133333 10.666667 4.266667 21.333333 4.266666 42.666667v384c0 29.866667-2.133333 46.933333-10.666666 66.133333-6.4 12.8-19.2 25.6-32 32-23.466667 8.533333-40.533333 10.666667-70.4 10.666667z m-179.2-64h179.2c25.6 0 32-2.133333 36.266666-4.266667l6.4-6.4c2.133333-4.266667 4.266667-8.533333 4.266667-36.266667v-384c0-17.066667 0-21.333333-2.133333-25.6 0-2.133333 0-2.133333-2.133334-4.266666s-6.4-6.4-19.2-17.066667L524.8 145.066667c-6.4-4.266667-10.666667-8.533333-12.8-8.533334-2.133333 2.133333-6.4 4.266667-12.8 8.533334L172.8 396.8c-12.8 10.666667-17.066667 12.8-19.2 17.066667 0 2.133333-2.133333 2.133333-2.133333 4.266666s-2.133333 6.4-2.133334 21.333334v388.266666c0 25.6 2.133333 32 4.266667 36.266667l6.4 6.4c2.133333 2.133333 8.533333 4.266667 34.133333 4.266667h179.2l27.733334-85.333334h219.733333l29.866667 85.333334z" p-id="1360" fill="#bfbfbf"></path></svg>