<?xml version="1.0" standalone="no"?><!DOCTYPE svg PUBLIC "-//W3C//DTD SVG 1.1//EN" "http://www.w3.org/Graphics/SVG/1.1/DTD/svg11.dtd"><svg t="1737439884839" class="icon" viewBox="0 0 1131 1024" version="1.1" xmlns="http://www.w3.org/2000/svg" p-id="7797" width="1131" height="1024" xmlns:xlink="http://www.w3.org/1999/xlink"><path d="M647.610811 946.508108h-88.562162v-130.075676h110.702702c-5.535135-24.908108-8.302703-52.583784-8.302702-77.491891H138.378378c-35.978378 0-63.654054-30.443243-63.654054-66.421622v-525.837838c0-35.978378 27.675676-66.421622 63.654054-66.421622h802.594595c35.978378 0 63.654054 30.443243 63.654054 66.421622v235.243243c24.908108 0 52.583784 2.767568 74.724324 8.302703V143.913514C1079.351351 63.654054 1018.464865 0 940.972973 0H138.378378C63.654054 0 0 63.654054 0 143.913514v525.837837c0 80.259459 63.654054 143.913514 138.378378 143.913514h340.410811v130.075676h-88.562162c-22.140541 0-38.745946 16.605405-38.745946 38.745945s16.605405 38.745946 38.745946 38.745946h254.616216c22.140541 0 38.745946-16.605405 38.745946-38.745946s-13.837838-35.978378-35.978378-35.978378z" fill="#bfbfbf" p-id="7798"></path><path d="M888.389189 799.827027c-85.794595 0-157.751351-71.956757-157.751351-157.751351s71.956757-157.751351 157.751351-157.751352v-77.491892c-130.075676 0-235.243243 105.167568-235.243243 235.243244s105.167568 235.243243 235.243243 235.243243 235.243243-105.167568 235.243243-235.243243h-77.491891c0 88.562162-69.189189 157.751351-157.751352 157.751351z" fill="#bfbfbf" p-id="7799"></path><path d="M965.881081 392.994595H940.972973v190.962162h190.962162v-24.908108c0-94.097297-74.724324-166.054054-166.054054-166.054054z m27.675676 138.378378v-83.027027c41.513514 11.07027 71.956757 41.513514 83.027027 83.027027h-83.027027zM772.151351 257.383784L470.486486 509.232432l-135.61081-132.843243c-13.837838-13.837838-35.978378-13.837838-49.816217 0s-13.837838 35.978378 0 49.816216L442.810811 581.189189c5.535135 5.535135 16.605405 11.07027 24.908108 11.07027 8.302703 0 16.605405-2.767568 22.14054-8.302702l326.572973-271.221622c13.837838-11.07027 16.605405-33.210811 5.535136-47.048649-11.07027-19.372973-33.210811-22.140541-49.816217-8.302702z" fill="#bfbfbf" p-id="7800"></path></svg>