<?xml version="1.0" standalone="no"?><!DOCTYPE svg PUBLIC "-//W3C//DTD SVG 1.1//EN" "http://www.w3.org/Graphics/SVG/1.1/DTD/svg11.dtd"><svg t="1737556150405" class="icon" viewBox="0 0 1025 1024" version="1.1" xmlns="http://www.w3.org/2000/svg" p-id="4390" xmlns:xlink="http://www.w3.org/1999/xlink" width="1025" height="1024"><path d="M871.697868 1023.643925h-121.82932c-22.690762 0-41.129265-18.433342-41.129265-41.124104s18.433342-41.129265 41.129265-41.129265h121.82932c51.687668 0 71.02926-19.202258 71.02926-71.024099l-0.335433-90.95915c0-22.685602 18.438502-41.118944 41.129265-41.118943s41.118944 18.433342 41.118943 41.118943l0.330273 91.088162c-0.134173 97.332379-55.95541 153.148455-153.272308 153.148456zM267.113158 1023.643925H154.464385c-97.327219 0-153.138134-55.816076-153.138134-153.143295l-0.330273-86.061825c0-22.685602 18.433342-41.124104 41.118944-41.124105s41.118944 18.438502 41.118944 41.124105l0.330272 86.061825c0 51.692829 19.217739 71.03442 71.034421 71.03442h112.653933c22.680441 0 41.118944 18.428181 41.118944 41.118944-0.134173 22.556589-18.572676 40.989931-41.258278 40.989931zM42.445195 290.980517c-22.685602 0-41.118944-18.433342-41.118944-41.118944V153.272308C1.326251 55.950249 57.137167 0.123852 154.464385 0.123852h112.648773c22.685602 0 41.124104 18.438502 41.124105 41.124104s-18.438502 41.124104-41.124105 41.124105H154.464385c-51.687668 0-71.024099 19.202258-71.024099 71.024099v96.723439c-0.005161 22.551429-18.309489 40.860918-40.995091 40.860918zM983.717059 288.018384c-22.685602 0-41.118944-18.438502-41.118944-41.124104V153.272308c0-51.697989-19.217739-71.02926-71.039581-71.02926h-121.695146c-22.690762 0-41.129265-18.433342-41.129265-41.118944s18.433342-41.118944 41.129265-41.118943h121.82932c97.316898 0 153.138134 55.816076 153.138134 153.138134v93.750985a41.057018 41.057018 0 0 1-41.113783 41.124104zM664.167958 435.278698c-28.94014 0-54.479504-25.534203-54.479504-54.479504 0-28.94014 25.534203-54.479504 54.479504-54.479504s54.489825 25.534203 54.489826 54.479504-25.539364 54.479504-54.489826 54.479504z" p-id="4391" fill="#515151"></path><path d="M814.777443 180.793307c36.02552 0 62.23059 26.199909 62.23059 58.948506v535.640297c0 32.748596-26.199909 55.671582-62.23059 55.671581H224.146752c-36.02036 3.276924-62.22543-22.922985-62.22543-55.671581V239.741813c0-32.748596 26.20507-58.948506 62.22543-58.948506h590.630691z m-121.751913 425.953657l111.926302 108.871279v-443.132994c0-13.097374-13.087053-22.922985-29.471673-22.922985H260.167112c-13.102535-3.271763-26.194749 6.548687-26.194749 22.922985v443.132994l111.926302-203.845305c9.820451-9.825611 22.922985-16.369138 36.015199-16.369138 16.379459 0 29.476833 3.276924 36.02552 13.092214l117.891851 121.168775 9.820451 6.553847c6.553848 3.276924 16.379459 9.825611 22.922985 9.825611 6.553848 0 16.374298-3.276924 26.199909-9.825611l39.297284-32.753757c9.825611-6.548687 16.374298-9.820451 29.471673-9.82045 13.112856 0 22.933306 3.276924 29.481993 13.102535z" p-id="4392" fill="#515151"></path></svg>